<svg width="400" height="300" viewBox="0 0 400 300" fill="none" xmlns="http://www.w3.org/2000/svg">
    <!-- Background -->
    <rect width="400" height="300" fill="#F3F4F6" rx="20"/>
    
    <!-- Workflow Diagram -->
    <g transform="translate(50, 100)">
        <!-- Nodes -->
        <g class="node">
            <circle cx="50" cy="50" r="30" fill="#4F46E5"/>
            <path d="M35 50 L65 50 M50 35 L50 65" stroke="white" stroke-width="4"/>
        </g>
        
        <g class="node">
            <circle cx="150" cy="50" r="30" fill="#818CF8"/>
            <rect x="135" y="35" width="30" height="30" stroke="white" stroke-width="4" fill="none"/>
        </g>
        
        <g class="node">
            <circle cx="250" cy="50" r="30" fill="#4F46E5"/>
            <path d="M235 50 L265 50 M250 35 L250 65" stroke="white" stroke-width="4" transform="rotate(45 250 50)"/>
        </g>
        
        <!-- Connecting Lines -->
        <path d="M80 50 L120 50" stroke="#4F46E5" stroke-width="4">
            <animate attributeName="stroke-dasharray" values="0,20;20,0" dur="1.5s" repeatCount="indefinite"/>
        </path>
        
        <path d="M180 50 L220 50" stroke="#4F46E5" stroke-width="4">
            <animate attributeName="stroke-dasharray" values="0,20;20,0" dur="1.5s" repeatCount="indefinite"/>
        </path>
    </g>
    
    <!-- Automation Gears -->
    <g transform="translate(300, 50)">
        <g transform="rotate(0 25 25)">
            <circle cx="25" cy="25" r="20" stroke="#4F46E5" stroke-width="4" fill="none"/>
            <path d="M25 5 L25 45 M5 25 L45 25" stroke="#4F46E5" stroke-width="4"/>
            <animateTransform
                attributeName="transform"
                type="rotate"
                from="0 25 25"
                to="360 25 25"
                dur="4s"
                repeatCount="indefinite"/>
        </g>
    </g>
    
    <!-- Progress Bar -->
    <g transform="translate(100, 200)">
        <rect x="0" y="0" width="200" height="20" fill="#E5E7EB" rx="10"/>
        <rect x="0" y="0" width="140" height="20" fill="#4F46E5" rx="10">
            <animate attributeName="width" values="0;140" dur="2s" fill="freeze"/>
        </rect>
    </g>
</svg> 