<svg width="400" height="300" viewBox="0 0 400 300" fill="none" xmlns="http://www.w3.org/2000/svg">
    <!-- Background -->
    <rect width="400" height="300" fill="#F3F4F6" rx="20"/>
    
    <!-- AI Agent -->
    <g transform="translate(150, 50)">
        <!-- Head -->
        <circle cx="50" cy="50" r="40" fill="#4F46E5"/>
        
        <!-- Face -->
        <circle cx="35" cy="40" r="5" fill="white"/>
        <circle cx="65" cy="40" r="5" fill="white"/>
        <path d="M35 60 Q50 70 65 60" stroke="white" stroke-width="3" fill="none"/>
        
        <!-- Circuit Lines -->
        <path d="M10 50 L30 50" stroke="white" stroke-width="2"/>
        <path d="M70 50 L90 50" stroke="white" stroke-width="2"/>
        <path d="M50 10 L50 30" stroke="white" stroke-width="2"/>
        <path d="M50 70 L50 90" stroke="white" stroke-width="2"/>
        
        <!-- Pulse Effect -->
        <circle cx="50" cy="50" r="45" stroke="#818CF8" stroke-width="2" fill="none">
            <animate attributeName="r" values="45;50;45" dur="2s" repeatCount="indefinite"/>
            <animate attributeName="opacity" values="0.6;0;0.6" dur="2s" repeatCount="indefinite"/>
        </circle>
    </g>
    
    <!-- Data Flow -->
    <g transform="translate(50, 150)">
        <!-- Data Streams -->
        <path d="M0 0 Q150 0 300 0" stroke="#4F46E5" stroke-width="2" stroke-dasharray="5,5">
            <animate attributeName="stroke-dashoffset" values="10;0" dur="1s" repeatCount="indefinite"/>
        </path>
        <path d="M0 20 Q150 20 300 20" stroke="#818CF8" stroke-width="2" stroke-dasharray="5,5">
            <animate attributeName="stroke-dashoffset" values="10;0" dur="1.5s" repeatCount="indefinite"/>
        </path>
        <path d="M0 40 Q150 40 300 40" stroke="#4F46E5" stroke-width="2" stroke-dasharray="5,5">
            <animate attributeName="stroke-dashoffset" values="10;0" dur="2s" repeatCount="indefinite"/>
        </path>
    </g>
    
    <!-- Task Icons -->
    <g transform="translate(50, 200)">
        <!-- Document -->
        <rect x="0" y="0" width="30" height="40" fill="#818CF8" rx="5"/>
        <path d="M5 10 L25 10 M5 20 L25 20 M5 30 L15 30" stroke="white" stroke-width="2"/>
        
        <!-- Calendar -->
        <rect x="50" y="0" width="40" height="40" fill="#4F46E5" rx="5"/>
        <path d="M55 15 L85 15 M60 25 L70 25 M75 25 L80 25" stroke="white" stroke-width="2"/>
        
        <!-- Chat -->
        <rect x="110" y="0" width="40" height="40" fill="#818CF8" rx="5"/>
        <path d="M120 20 L140 20 M120 30 L130 30" stroke="white" stroke-width="2"/>
    </g>
    
    <!-- Connection Lines -->
    <g transform="translate(200, 100)">
        <line x1="0" y1="0" x2="50" y2="50" stroke="#4F46E5" stroke-width="2">
            <animate attributeName="stroke-dasharray" values="0,20;20,0" dur="1.5s" repeatCount="indefinite"/>
        </line>
        <line x1="100" y1="0" x2="50" y2="50" stroke="#818CF8" stroke-width="2">
            <animate attributeName="stroke-dasharray" values="0,20;20,0" dur="1.5s" repeatCount="indefinite"/>
        </line>
    </g>
</svg> 